<?xml version="1.0" standalone="no"?>
<svg version="1.0" xmlns="http://www.w3.org/2000/svg" width="512px" height="512px" viewBox="0 0 512 512">

<g transform="translate(0.000000,399.000000) scale(0.100000,-0.100000)"
fill="#FFFFFF" stroke="none">

<path d="M2526 3119 c-45 -35 -36 -71 37 -153 290 -326 429 -685 429 -1106 0
-424 -140 -781 -434 -1113 -68 -75 -75 -112 -32 -146 54 -43 83 -27 191 101
97 114 174 230 238 358 323 644 231 1405 -238 1958 -108 128 -137 144 -191
101z"/>
<path d="M2206 2799 c-45 -36 -37 -77 34 -154 400 -442 399 -1128 -1 -1570
-53 -59 -60 -71 -57 -102 4 -47 43 -79 84 -69 56 15 216 218 289 371 98 202
130 345 130 585 0 131 -5 196 -18 260 -50 234 -150 435 -302 610 -81 94 -111
107 -159 69z"/>
<path d="M1884 2477 c-43 -37 -36 -76 26 -145 59 -65 132 -207 157 -302 10
-41 16 -104 16 -170 0 -66 -6 -129 -16 -170 -25 -95 -98 -237 -157 -302 -62
-69 -69 -108 -26 -145 37 -32 59 -29 107 14 91 82 181 241 221 391 29 109 29
315 0 424 -40 150 -130 309 -221 391 -48 43 -70 46 -107 14z"/>
<path d="M1583 2170 c-31 -13 -56 -54 -48 -81 4 -12 22 -41 41 -66 74 -97 74
-230 -1 -328 -48 -62 -52 -86 -22 -120 54 -63 121 -25 185 104 36 72 37 79 37
181 0 102 -1 109 -37 181 -53 107 -104 149 -155 129z"/>
</g>
</svg>
