<svg xmlns="http://www.w3.org/2000/svg"  viewBox="0 0 80 80" width="80px" height="80px"><path d="M 11 16 C 8.25 16 6 18.25 6 21 L 6 59 C 6 61.75 8.25 64 11 64 L 69 64 C 71.75 64 74 61.75 74 59 L 74 21 C 74 18.25 71.75 16 69 16 Z M 11 18 L 69 18 C 70.667969 18 72 19.332031 72 21 L 72 59 C 72 60.667969 70.667969 62 69 62 L 11 62 C 9.332031 62 8 60.667969 8 59 L 8 21 C 8 19.332031 9.332031 18 11 18 Z M 12 22 C 11.449219 22 11 22.449219 11 23 C 11 23.550781 11.449219 24 12 24 C 12.550781 24 13 23.550781 13 23 C 13 22.449219 12.550781 22 12 22 Z M 16 22 C 15.449219 22 15 22.449219 15 23 C 15 23.550781 15.449219 24 16 24 C 16.550781 24 17 23.550781 17 23 C 17 22.449219 16.550781 22 16 22 Z M 20 22 C 19.449219 22 19 22.449219 19 23 C 19 23.550781 19.449219 24 20 24 C 20.550781 24 21 23.550781 21 23 C 21 22.449219 20.550781 22 20 22 Z M 24 22 C 23.449219 22 23 22.449219 23 23 C 23 23.550781 23.449219 24 24 24 C 24.550781 24 25 23.550781 25 23 C 25 22.449219 24.550781 22 24 22 Z M 28 22 C 27.449219 22 27 22.449219 27 23 C 27 23.550781 27.449219 24 28 24 C 28.550781 24 29 23.550781 29 23 C 29 22.449219 28.550781 22 28 22 Z M 32 22 C 31.449219 22 31 22.449219 31 23 C 31 23.550781 31.449219 24 32 24 C 32.550781 24 33 23.550781 33 23 C 33 22.449219 32.550781 22 32 22 Z M 36 22 C 35.449219 22 35 22.449219 35 23 C 35 23.550781 35.449219 24 36 24 C 36.550781 24 37 23.550781 37 23 C 37 22.449219 36.550781 22 36 22 Z M 40 22 C 39.449219 22 39 22.449219 39 23 C 39 23.550781 39.449219 24 40 24 C 40.550781 24 41 23.550781 41 23 C 41 22.449219 40.550781 22 40 22 Z M 44 22 C 43.449219 22 43 22.449219 43 23 C 43 23.550781 43.449219 24 44 24 C 44.550781 24 45 23.550781 45 23 C 45 22.449219 44.550781 22 44 22 Z M 48 22 C 47.449219 22 47 22.449219 47 23 C 47 23.550781 47.449219 24 48 24 C 48.550781 24 49 23.550781 49 23 C 49 22.449219 48.550781 22 48 22 Z M 52 22 C 51.449219 22 51 22.449219 51 23 C 51 23.550781 51.449219 24 52 24 C 52.550781 24 53 23.550781 53 23 C 53 22.449219 52.550781 22 52 22 Z M 56 22 C 55.449219 22 55 22.449219 55 23 C 55 23.550781 55.449219 24 56 24 C 56.550781 24 57 23.550781 57 23 C 57 22.449219 56.550781 22 56 22 Z M 60 22 C 59.449219 22 59 22.449219 59 23 C 59 23.550781 59.449219 24 60 24 C 60.550781 24 61 23.550781 61 23 C 61 22.449219 60.550781 22 60 22 Z M 64 22 C 63.449219 22 63 22.449219 63 23 C 63 23.550781 63.449219 24 64 24 C 64.550781 24 65 23.550781 65 23 C 65 22.449219 64.550781 22 64 22 Z M 68 22 C 67.449219 22 67 22.449219 67 23 C 67 23.550781 67.449219 24 68 24 C 68.550781 24 69 23.550781 69 23 C 69 22.449219 68.550781 22 68 22 Z M 34.78125 35.796875 C 32.410156 35.796875 30.507813 37.660156 30.507813 39.992188 C 30.507813 42.347656 32.359375 44.175781 34.738281 44.175781 C 35.414063 44.175781 35.988281 44.046875 36.703125 43.710938 L 36.703125 41.871094 C 36.078125 42.496094 35.523438 42.75 34.8125 42.75 C 33.238281 42.75 32.121094 41.605469 32.121094 39.984375 C 32.121094 38.445313 33.273438 37.230469 34.742188 37.230469 C 35.488281 37.230469 36.050781 37.496094 36.703125 38.128906 L 36.703125 36.289063 C 36.015625 35.941406 35.453125 35.796875 34.78125 35.796875 Z M 41.359375 35.824219 C 39.050781 35.824219 37.175781 37.695313 37.175781 40.003906 C 37.179688 42.316406 39.050781 44.1875 41.359375 44.1875 C 43.667969 44.1875 45.539063 42.316406 45.542969 40.003906 C 45.542969 37.695313 43.667969 35.824219 41.359375 35.824219 Z M 27.382813 35.84375 C 25.964844 35.84375 24.882813 36.828125 24.882813 38.140625 C 24.882813 39.246094 25.394531 39.789063 26.855469 40.339844 C 27.707031 40.660156 28.40625 40.851563 28.40625 41.625 C 28.40625 42.277344 27.886719 42.761719 27.191406 42.761719 C 26.445313 42.761719 25.84375 42.386719 25.484375 41.6875 L 24.472656 42.664063 C 25.195313 43.722656 26.058594 44.1875 27.25 44.1875 C 28.875 44.1875 30.015625 43.109375 30.015625 41.558594 C 30.015625 40.28125 29.488281 39.707031 27.707031 39.054688 C 26.769531 38.707031 26.496094 38.480469 26.496094 38.046875 C 26.496094 37.539063 26.984375 37.15625 27.660156 37.15625 C 28.128906 37.15625 28.515625 37.347656 28.921875 37.804688 L 29.738281 36.734375 C 29.066406 36.144531 28.261719 35.84375 27.382813 35.84375 Z M 15 35.980469 L 15 44 L 17.28125 44 C 20.769531 44 21.601563 41.242188 21.601563 39.996094 C 21.601563 37.625 19.832031 35.980469 17.296875 35.980469 Z M 22.320313 35.980469 L 22.320313 44 L 23.886719 44 L 23.886719 35.980469 Z M 45.257813 35.980469 L 48.660156 44.203125 L 49.5 44.203125 L 52.96875 35.980469 L 51.269531 35.980469 L 49.105469 41.363281 L 46.96875 35.980469 Z M 53.671875 35.980469 L 53.671875 43.996094 L 58.109375 43.996094 L 58.109375 42.640625 L 55.234375 42.640625 L 55.234375 40.472656 L 58.003906 40.472656 L 58.003906 39.113281 L 55.234375 39.113281 L 55.234375 37.335938 L 58.109375 37.335938 L 58.109375 35.980469 Z M 59.144531 35.980469 L 59.144531 44 L 60.707031 44 L 60.707031 40.777344 L 60.910156 40.777344 L 63.078125 44 L 65 44 L 62.472656 40.621094 C 63.652344 40.378906 64.300781 39.574219 64.300781 38.34375 C 64.300781 36.84375 63.269531 35.980469 61.464844 35.980469 Z M 60.707031 37.238281 L 61.1875 37.238281 C 62.164063 37.238281 62.691406 37.648438 62.691406 38.429688 C 62.691406 39.234375 62.160156 39.671875 61.164063 39.671875 L 60.707031 39.671875 Z M 16.5625 37.335938 L 17.082031 37.335938 C 19.214844 37.335938 19.988281 38.71875 19.988281 39.980469 C 19.988281 40.585938 19.796875 42.640625 16.984375 42.640625 L 16.5625 42.640625 Z M 68 48 C 67.449219 48 67 48.449219 67 49 C 67 49.550781 67.449219 50 68 50 C 68.550781 50 69 49.550781 69 49 C 69 48.449219 68.550781 48 68 48 Z M 64 51 C 63.449219 51 63 51.449219 63 52 C 63 52.550781 63.449219 53 64 53 C 64.550781 53 65 52.550781 65 52 C 65 51.449219 64.550781 51 64 51 Z M 60 53 C 59.449219 53 59 53.449219 59 54 C 59 54.550781 59.449219 55 60 55 C 60.550781 55 61 54.550781 61 54 C 61 53.449219 60.550781 53 60 53 Z M 56 54 C 55.449219 54 55 54.449219 55 55 C 55 55.550781 55.449219 56 56 56 C 56.550781 56 57 55.550781 57 55 C 57 54.449219 56.550781 54 56 54 Z M 52 55 C 51.449219 55 51 55.449219 51 56 C 51 56.550781 51.449219 57 52 57 C 52.550781 57 53 56.550781 53 56 C 53 55.449219 52.550781 55 52 55 Z M 12 56 C 11.449219 56 11 56.449219 11 57 C 11 57.550781 11.449219 58 12 58 C 12.550781 58 13 57.550781 13 57 C 13 56.449219 12.550781 56 12 56 Z M 16 56 C 15.449219 56 15 56.449219 15 57 C 15 57.550781 15.449219 58 16 58 C 16.550781 58 17 57.550781 17 57 C 17 56.449219 16.550781 56 16 56 Z M 20 56 C 19.449219 56 19 56.449219 19 57 C 19 57.550781 19.449219 58 20 58 C 20.550781 58 21 57.550781 21 57 C 21 56.449219 20.550781 56 20 56 Z M 24 56 C 23.449219 56 23 56.449219 23 57 C 23 57.550781 23.449219 58 24 58 C 24.550781 58 25 57.550781 25 57 C 25 56.449219 24.550781 56 24 56 Z M 28 56 C 27.449219 56 27 56.449219 27 57 C 27 57.550781 27.449219 58 28 58 C 28.550781 58 29 57.550781 29 57 C 29 56.449219 28.550781 56 28 56 Z M 32 56 C 31.449219 56 31 56.449219 31 57 C 31 57.550781 31.449219 58 32 58 C 32.550781 58 33 57.550781 33 57 C 33 56.449219 32.550781 56 32 56 Z M 36 56 C 35.449219 56 35 56.449219 35 57 C 35 57.550781 35.449219 58 36 58 C 36.550781 58 37 57.550781 37 57 C 37 56.449219 36.550781 56 36 56 Z M 40 56 C 39.449219 56 39 56.449219 39 57 C 39 57.550781 39.449219 58 40 58 C 40.550781 58 41 57.550781 41 57 C 41 56.449219 40.550781 56 40 56 Z M 44 56 C 43.449219 56 43 56.449219 43 57 C 43 57.550781 43.449219 58 44 58 C 44.550781 58 45 57.550781 45 57 C 45 56.449219 44.550781 56 44 56 Z M 48 56 C 47.449219 56 47 56.449219 47 57 C 47 57.550781 47.449219 58 48 58 C 48.550781 58 49 57.550781 49 57 C 49 56.449219 48.550781 56 48 56 Z"/></svg>